<svg class="highcharts-root" xmlns="http://www.w3.org/2000/svg" width="930" height="260" viewBox="0 0 930 260" font-family="&quot;Lucida Grande&quot;,&quot;Lucida Sans Unicode&quot;,Arial,Helvetica,sans-serif" font-size="12">
    <rect fill="#fff" class="highcharts-background" width="930" height="260" rx="0" ry="0"/>
    <path fill="none" class="highcharts-plot-background" d="M61 10h859v197H61z"/>
    <path fill="none" class="highcharts-plot-border" data-z-index="1" d="M61 10h859v197H61z"/>
    <g class="highcharts-grid highcharts-xaxis-grid" data-z-index="1">
        <path fill="none" stroke="#e6e6e6" data-z-index="1" class="highcharts-grid-line" d="M167.5 10v197m108-197v197m107-197v197m108-197v197m107-197v197m107-197v197m108-197v197m108-197v197"/>
    </g>
    <g class="highcharts-grid highcharts-yaxis-grid" data-z-index="1">
        <path fill="none" stroke="#f2f2f2" class="highcharts-minor-grid-line" d="M61 207.5h859m-859-13h859m-859-13h859m-859-13h859m-859-14h859m-859-13h859m-859-13h859m-859-13h859m-859-13h859m-859-13h859m-859-13h859m-859-13h859m-859-14h859m-859-13h859m-859-13h859M61 9.5h859"/>
        <path fill="none" stroke="#e6e6e6" data-z-index="1" class="highcharts-grid-line" d="M61 207.5h859m-859-66h859m-859-65h859M61 9.5h859"/>
    </g>
    <g class="highcharts-axis highcharts-xaxis" data-z-index="2">
        <path fill="none" class="highcharts-tick" stroke="#000" d="M167.5 207v10m108-10v10m107-10v10m108-10v10m107-10v10m107-10v10m108-10v10m108-10v10"/>
        <path fill="none" class="highcharts-axis-line" stroke="#000" data-z-index="7" d="M61 207.5h859"/>
    </g>
    <g class="highcharts-axis highcharts-yaxis" data-z-index="2">
        <path fill="none" class="highcharts-tick" stroke="#000" d="M61 207.5H51m10-66H51m10-65H51m10-67H51"/>
        <path fill="none" class="highcharts-axis-line" stroke="#000" data-z-index="7" d="M60.5 10v197"/>
        <text x="23.828" data-z-index="7" text-anchor="middle" transform="rotate(-90 23.828 108.5)" class="highcharts-axis-title" y="108.5" color="#333" font-weight="700" font-family="Trebuchet MS,Verdana,sans-serif" fill="#333">
            <tspan>Published articles</tspan>
        </text>
    </g>
    <g class="highcharts-series-group" data-z-index="3">
        <g data-z-index=".1" class="highcharts-series highcharts-series-0 highcharts-spline-series highcharts-color-0" transform="translate(61 10)" clip-path="url(#a)">
            <path fill="none" d="M53.688 183.867s64.424-7.88 107.374-19.7c42.95-11.82 64.425-24.954 107.375-39.4 42.95-14.447 64.425-10.507 107.375-32.834 42.95-22.326 64.425-78.8 107.375-78.8h107.375c42.95 0 64.425 98.5 107.375 98.5s107.375-78.8 107.375-78.8" class="highcharts-graph" data-z-index="1" stroke="#2F8BD6" stroke-width="2" stroke-linejoin="round" stroke-linecap="round"/>
            <path fill="none" d="M43.688 183.867h10s64.424-7.88 107.374-19.7c42.95-11.82 64.425-24.954 107.375-39.4 42.95-14.447 64.425-10.507 107.375-32.834 42.95-22.326 64.425-78.8 107.375-78.8h107.375c42.95 0 64.425 98.5 107.375 98.5s107.375-78.8 107.375-78.8h10" stroke-linejoin="round" stroke="rgba(192,192,192,0.0001)" stroke-width="22" data-z-index="2" class="highcharts-tracker" cursor="pointer"/>
        </g>
        <g data-z-index=".1" class="highcharts-markers highcharts-series-0 highcharts-spline-series highcharts-color-0 highcharts-tracker" cursor="pointer">
            <path fill="#2F8BD6" d="M118 193.867a4 4 0 1 1 0-.004zm108-19.7a4 4 0 1 1 0-.004zM333 135a4 4 0 1 1 0-.004zm107-33a4 4 0 1 1 0-.004zm108-79a4 4 0 1 1 0-.004zm107 .133a4 4 0 1 1 0-.004zm107 98.5a4 4 0 1 1 0-.004zm108-78.8a4 4 0 1 1 0-.004z" class="highcharts-point highcharts-color-0"/>
        </g>
    </g>
    <g class="highcharts-legend" data-z-index="7" transform="translate(80 15)">
        <rect fill="none" class="highcharts-legend-box" rx="0" ry="0" width="145" height="29"/>
        <g class="highcharts-legend-item highcharts-spline-series highcharts-color-0 highcharts-series-0" data-z-index="1">
            <path fill="none" d="M8 14h16" class="highcharts-graph" stroke="#2F8BD6" stroke-width="2"/>
            <path fill="#2F8BD6" d="M20 14a4 4 0 1 1 0-.004z" class="highcharts-point"/>
            <text x="21" data-z-index="2" y="15" color="#333" font-weight="700" cursor="pointer" fill="#333" transform="translate(8 3)">
                <tspan>Degree YearTrend</tspan>
            </text>
        </g>
    </g>
    <g class="highcharts-axis-labels highcharts-xaxis-labels" data-z-index="7">
        <text x="112.095" style="font:11px Trebuchet MS,Verdana,sans-serif" text-anchor="middle" transform="rotate(45 112.095 227)" y="227" color="#000" cursor="default">
            2014
        </text>
        <text x="219.47" style="font:11px Trebuchet MS,Verdana,sans-serif" text-anchor="middle" transform="rotate(45 219.47 227)" y="227" color="#000" cursor="default">
            2015
        </text>
        <text x="326.845" style="font:11px Trebuchet MS,Verdana,sans-serif" text-anchor="middle" transform="rotate(45 326.845 227)" y="227" color="#000" cursor="default">
            2016
        </text>
        <text x="434.22" style="font:11px Trebuchet MS,Verdana,sans-serif" text-anchor="middle" transform="rotate(45 434.22 227)" y="227" color="#000" cursor="default">
            2017
        </text>
        <text x="541.595" style="font:11px Trebuchet MS,Verdana,sans-serif" text-anchor="middle" transform="rotate(45 541.595 227)" y="227" color="#000" cursor="default">
            2018
        </text>
        <text x="648.97" style="font:11px Trebuchet MS,Verdana,sans-serif" text-anchor="middle" transform="rotate(45 648.97 227)" y="227" color="#000" cursor="default">
            2019
        </text>
        <text x="756.345" style="font:11px Trebuchet MS,Verdana,sans-serif" text-anchor="middle" transform="rotate(45 756.345 227)" y="227" color="#000" cursor="default">
            2020
        </text>
        <text x="863.72" style="font:11px Trebuchet MS,Verdana,sans-serif" text-anchor="middle" transform="rotate(45 863.72 227)" y="227" color="#000" cursor="default">
            2021
        </text>
    </g>
    <g class="highcharts-axis-labels highcharts-yaxis-labels" data-z-index="7">
        <text x="46" style="font:11px Trebuchet MS,Verdana,sans-serif" text-anchor="end" y="212" color="#000" cursor="default">
            0
        </text>
        <text x="46" style="font:11px Trebuchet MS,Verdana,sans-serif" text-anchor="end" y="146" color="#000" cursor="default">
            10
        </text>
        <text x="46" style="font:11px Trebuchet MS,Verdana,sans-serif" text-anchor="end" y="80" color="#000" cursor="default">
            20
        </text>
        <text x="46" style="font:11px Trebuchet MS,Verdana,sans-serif" text-anchor="end" y="15" color="#000" cursor="default">
            30
        </text>
    </g>
</svg>
