<svg class="highcharts-root" xmlns="http://www.w3.org/2000/svg" width="910" height="384" viewBox="0 0 910 384" font-family="&quot;Lucida Grande&quot;,&quot;Lucida Sans Unicode&quot;,Arial,Helvetica,sans-serif" font-size="12">
    <rect fill="#fff" class="highcharts-background" width="910" height="384" rx="0" ry="0"/>
    <path fill="none" class="highcharts-plot-background" d="M62 10h838v286H62z"/>
    <g class="highcharts-grid highcharts-xaxis-grid" data-z-index="1">
        <path fill="none" stroke="#e6e6e6" data-z-index="1" class="highcharts-grid-line" d="M93.5 10v286M125.5 10v286M158.5 10v286M190.5 10v286M222.5 10v286M254.5 10v286M287.5 10v286M319.5 10v286M351.5 10v286M383.5 10v286M416.5 10v286M448.5 10v286M480.5 10v286M512.5 10v286M544.5 10v286M577.5 10v286M609.5 10v286M641.5 10v286M673.5 10v286M706.5 10v286M738.5 10v286M770.5 10v286M802.5 10v286M835.5 10v286M867.5 10v286M900.5 10v286M61.5 10v286"/>
    </g>
    <g class="highcharts-grid highcharts-yaxis-grid" data-z-index="1">
        <path fill="none" stroke="#f2f2f2" class="highcharts-minor-grid-line" d="M62 296.5h838M62 285.5h838M62 273.5h838M62 262.5h838M62 250.5h838M62 239.5h838M62 227.5h838M62 216.5h838M62 204.5h838M62 193.5h838M62 182.5h838M62 170.5h838M62 159.5h838M62 147.5h838M62 136.5h838M62 124.5h838M62 113.5h838M62 102.5h838M62 90.5h838M62 79.5h838M62 67.5h838M62 56.5h838M62 44.5h838M62 33.5h838M62 21.5h838M62 9.5h838"/>
        <path fill="none" stroke="#e6e6e6" data-z-index="1" class="highcharts-grid-line" d="M62 296.5h838M62 239.5h838M62 182.5h838M62 124.5h838M62 67.5h838M62 9.5h838"/>
    </g>
    <path fill="none" class="highcharts-plot-border" data-z-index="1" d="M62 10h838v286H62z"/>
    <g class="highcharts-axis highcharts-xaxis" data-z-index="2">
        <path fill="none" class="highcharts-tick" stroke="#000" d="M93.5 296v10M125.5 296v10M158.5 296v10M190.5 296v10M222.5 296v10M254.5 296v10M287.5 296v10M319.5 296v10M351.5 296v10M383.5 296v10M416.5 296v10M448.5 296v10M480.5 296v10M512.5 296v10M544.5 296v10M577.5 296v10M609.5 296v10M641.5 296v10M673.5 296v10M706.5 296v10M738.5 296v10M770.5 296v10M802.5 296v10M835.5 296v10M867.5 296v10M900.5 296v10M61.5 296v10"/>
        <path fill="none" class="highcharts-axis-line" stroke="#000" data-z-index="7" d="M62 296.5h838"/>
    </g>
    <g class="highcharts-axis highcharts-yaxis" data-z-index="2">
        <path fill="none" class="highcharts-tick" stroke="#000" d="M62 296.5H52M62 239.5H52M62 182.5H52M62 124.5H52M62 67.5H52M62 9.5H52"/>
        <text x="24.828" data-z-index="7" text-anchor="middle" transform="rotate(-90 24.828 153)" class="highcharts-axis-title" y="153" color="#333" font-weight="700" font-family="Trebuchet MS,Verdana,sans-serif" fill="#333">
            <tspan>Article Number ( Articles)</tspan>
        </text>
        <path fill="none" class="highcharts-axis-line" stroke="#000" data-z-index="7" d="M61.5 10v286"/>
    </g>
    <g class="highcharts-series-group" data-z-index="3">
        <g data-z-index=".1" class="highcharts-series highcharts-series-0 highcharts-column-series highcharts-color-0 highcharts-tracker highcharts-series-hover" transform="translate(62 10)" clip-path="url(#a)" cursor="pointer">
            <path fill="#4572A7" stroke="#fff" class="highcharts-point highcharts-color-0" d="M7.5 46.5h16v240h-16zM40.5 149.5h16v137h-16zM72.5 223.5h16v63h-16zM104.5 223.5h16v63h-16zM136.5 235.5h16v51h-16zM169.5 235.5h16v51h-16zM201.5 240.5h16v46h-16zM233.5 240.5h16v46h-16zM265.5 246.5h16v40h-16zM297.5 246.5h16v40h-16zM330.5 252.5h16v34h-16zM362.5 252.5h16v34h-16zM394.5 252.5h16v34h-16zM426.5 257.5h16v29h-16zM459.5 257.5h16v29h-16zM491.5 263.5h16v23h-16zM523.5 269.5h16v17h-16zM555.5 269.5h16v17h-16zM588.5 269.5h16v17h-16zM620.5 269.5h16v17h-16zM652.5 269.5h16v17h-16z"/>
            <path fill="#5E8BC0" stroke="#fff" class="highcharts-point highcharts-color-0 highcharts-point-hover" d="M684.5 269.5h16v17h-16z"/>
            <path fill="#4572A7" stroke="#fff" class="highcharts-point highcharts-color-0" d="M716.5 269.5h16v17h-16zM749.5 269.5h16v17h-16zM781.5 269.5h16v17h-16zM813.5 269.5h16v17h-16z"/>
        </g>
    </g>
    <g data-z-index="6" class="highcharts-data-labels highcharts-series-0 highcharts-column-series highcharts-color-0 highcharts-tracker highcharts-series-hover" cursor="pointer">
        <text x="5" data-z-index="1" y="17" font-weight="700" font-family="Trebuchet MS,Verdana,sans-serif" color="#333" fill="#333" transform="translate(65 33)" class="highcharts-label highcharts-data-label highcharts-data-label-color-0">
            <tspan x="5" y="17" class="highcharts-text-outline" fill="#FFF" stroke="#FFF" stroke-width="2" stroke-linejoin="round">42</tspan> <tspan x="5" y="17">42</tspan>
        </text>
        <text x="5" data-z-index="1" y="17" font-weight="700" font-family="Trebuchet MS,Verdana,sans-serif" color="#333" fill="#333" transform="translate(98 136)" class="highcharts-label highcharts-data-label highcharts-data-label-color-0">
            <tspan x="5" y="17" class="highcharts-text-outline" fill="#FFF" stroke="#FFF" stroke-width="2" stroke-linejoin="round">24 </tspan> <tspan x="5" y="17">24</tspan>
        </text>
        <text x="5" data-z-index="1" y="17" font-weight="700" font-family="Trebuchet MS,Verdana,sans-serif" color="#333" fill="#333" transform="translate(130 210)" class="highcharts-label highcharts-data-label highcharts-data-label-color-0">
            <tspan x="5" y="17" class="highcharts-text-outline" fill="#FFF" stroke="#FFF" stroke-width="2" stroke-linejoin="round">11 </tspan> <tspan x="5" y="17">11</tspan>
        </text>
        <text x="5" data-z-index="1" y="17" font-weight="700" font-family="Trebuchet MS,Verdana,sans-serif" color="#333" fill="#333" transform="translate(162 210)" class="highcharts-label highcharts-data-label highcharts-data-label-color-0">
            <tspan x="5" y="17" class="highcharts-text-outline" fill="#FFF" stroke="#FFF" stroke-width="2" stroke-linejoin="round">11 </tspan> <tspan x="5" y="17">11</tspan>
        </text>
        <text x="5" data-z-index="1" y="17" font-weight="700" font-family="Trebuchet MS,Verdana,sans-serif" color="#333" fill="#333" transform="translate(198 222)" class="highcharts-label highcharts-data-label highcharts-data-label-color-0">
            <tspan x="5" y="17" class="highcharts-text-outline" fill="#FFF" stroke="#FFF" stroke-width="2" stroke-linejoin="round">9</tspan> <tspan x="5" y="17">9</tspan>
        </text>
        <text x="5" data-z-index="1" y="17" font-weight="700" font-family="Trebuchet MS,Verdana,sans-serif" color="#333" fill="#333" transform="translate(231 222)" class="highcharts-label highcharts-data-label highcharts-data-label-color-0">
            <tspan x="5" y="17" class="highcharts-text-outline" fill="#FFF" stroke="#FFF" stroke-width="2" stroke-linejoin="round">9 </tspan> <tspan x="5" y="17">9</tspan>
        </text>
        <text x="5" data-z-index="1" y="17" font-weight="700" font-family="Trebuchet MS,Verdana,sans-serif" color="#333" fill="#333" transform="translate(263 227)" class="highcharts-label highcharts-data-label highcharts-data-label-color-0">
            <tspan x="5" y="17" class="highcharts-text-outline" fill="#FFF" stroke="#FFF" stroke-width="2" stroke-linejoin="round">8 </tspan> <tspan x="5" y="17">8</tspan>
        </text>
        <text x="5" data-z-index="1" y="17" font-weight="700" font-family="Trebuchet MS,Verdana,sans-serif" color="#333" fill="#333" transform="translate(295 227)" class="highcharts-label highcharts-data-label highcharts-data-label-color-0">
            <tspan x="5" y="17" class="highcharts-text-outline" fill="#FFF" stroke="#FFF" stroke-width="2" stroke-linejoin="round">8 </tspan> <tspan x="5" y="17">8</tspan>
        </text>
        <text x="5" data-z-index="1" y="17" font-weight="700" font-family="Trebuchet MS,Verdana,sans-serif" color="#333" fill="#333" transform="translate(327 233)" class="highcharts-label highcharts-data-label highcharts-data-label-color-0">
            <tspan x="5" y="17" class="highcharts-text-outline" fill="#FFF" stroke="#FFF" stroke-width="2" stroke-linejoin="round">7 </tspan> <tspan x="5" y="17">7</tspan>
        </text>
        <text x="5" data-z-index="1" y="17" font-weight="700" font-family="Trebuchet MS,Verdana,sans-serif" color="#333" fill="#333" transform="translate(359 233)" class="highcharts-label highcharts-data-label highcharts-data-label-color-0">
            <tspan x="5" y="17" class="highcharts-text-outline" fill="#FFF" stroke="#FFF" stroke-width="2" stroke-linejoin="round">7 </tspan> <tspan x="5" y="17">7</tspan>
        </text>
        <text x="5" data-z-index="1" y="17" font-weight="700" font-family="Trebuchet MS,Verdana,sans-serif" color="#333" fill="#333" transform="translate(392 239)" class="highcharts-label highcharts-data-label highcharts-data-label-color-0">
            <tspan x="5" y="17" class="highcharts-text-outline" fill="#FFF" stroke="#FFF" stroke-width="2" stroke-linejoin="round">6 </tspan> <tspan x="5" y="17">6</tspan>
        </text>
        <text x="5" data-z-index="1" y="17" font-weight="700" font-family="Trebuchet MS,Verdana,sans-serif" color="#333" fill="#333" transform="translate(424 239)" class="highcharts-label highcharts-data-label highcharts-data-label-color-0">
            <tspan x="5" y="17" class="highcharts-text-outline" fill="#FFF" stroke="#FFF" stroke-width="2" stroke-linejoin="round">6 </tspan> <tspan x="5" y="17">6</tspan>
        </text>
        <text x="5" data-z-index="1" y="17" font-weight="700" font-family="Trebuchet MS,Verdana,sans-serif" color="#333" fill="#333" transform="translate(456 239)" class="highcharts-label highcharts-data-label highcharts-data-label-color-0">
            <tspan x="5" y="17" class="highcharts-text-outline" fill="#FFF" stroke="#FFF" stroke-width="2" stroke-linejoin="round">6 </tspan> <tspan x="5" y="17">6</tspan>
        </text>
        <text x="5" data-z-index="1" y="17" font-weight="700" font-family="Trebuchet MS,Verdana,sans-serif" color="#333" fill="#333" transform="translate(488 244)" class="highcharts-label highcharts-data-label highcharts-data-label-color-0">
            <tspan x="5" y="17" class="highcharts-text-outline" fill="#FFF" stroke="#FFF" stroke-width="2" stroke-linejoin="round">5 </tspan> <tspan x="5" y="17">5</tspan>
        </text>
        <text x="5" data-z-index="1" y="17" font-weight="700" font-family="Trebuchet MS,Verdana,sans-serif" color="#333" fill="#333" transform="translate(521 244)" class="highcharts-label highcharts-data-label highcharts-data-label-color-0">
            <tspan x="5" y="17" class="highcharts-text-outline" fill="#FFF" stroke="#FFF" stroke-width="2" stroke-linejoin="round">5 </tspan> <tspan x="5" y="17">5</tspan>
        </text>
        <text x="5" data-z-index="1" y="17" font-weight="700" font-family="Trebuchet MS,Verdana,sans-serif" color="#333" fill="#333" transform="translate(553 250)" class="highcharts-label highcharts-data-label highcharts-data-label-color-0">
            <tspan x="5" y="17" class="highcharts-text-outline" fill="#FFF" stroke="#FFF" stroke-width="2" stroke-linejoin="round">4 </tspan> <tspan x="5" y="17">4</tspan>
        </text>
        <text x="5" data-z-index="1" y="17" font-weight="700" font-family="Trebuchet MS,Verdana,sans-serif" color="#333" fill="#333" transform="translate(585 256)" class="highcharts-label highcharts-data-label highcharts-data-label-color-0">
            <tspan x="5" y="17" class="highcharts-text-outline" fill="#FFF" stroke="#FFF" stroke-width="2" stroke-linejoin="round">3 </tspan> <tspan x="5" y="17">3</tspan>
        </text>
        <text x="5" data-z-index="1" y="17" font-weight="700" font-family="Trebuchet MS,Verdana,sans-serif" color="#333" fill="#333" transform="translate(617 256)" class="highcharts-label highcharts-data-label highcharts-data-label-color-0">
            <tspan x="5" y="17" class="highcharts-text-outline" fill="#FFF" stroke="#FFF" stroke-width="2" stroke-linejoin="round">3 </tspan> <tspan x="5" y="17">3</tspan>
        </text>
        <text x="5" data-z-index="1" y="17" font-weight="700" font-family="Trebuchet MS,Verdana,sans-serif" color="#333" fill="#333" transform="translate(650 256)" class="highcharts-label highcharts-data-label highcharts-data-label-color-0">
            <tspan x="5" y="17" class="highcharts-text-outline" fill="#FFF" stroke="#FFF" stroke-width="2" stroke-linejoin="round">3 </tspan> <tspan x="5" y="17">3</tspan>
        </text>
        <text x="5" data-z-index="1" y="17" font-weight="700" font-family="Trebuchet MS,Verdana,sans-serif" color="#333" fill="#333" transform="translate(682 256)" class="highcharts-label highcharts-data-label highcharts-data-label-color-0">
            <tspan x="5" y="17" class="highcharts-text-outline" fill="#FFF" stroke="#FFF" stroke-width="2" stroke-linejoin="round">3 </tspan> <tspan x="5" y="17">3</tspan>
        </text>
        <text x="5" data-z-index="1" y="17" font-weight="700" font-family="Trebuchet MS,Verdana,sans-serif" color="#333" fill="#333" transform="translate(714 256)" class="highcharts-label highcharts-data-label highcharts-data-label-color-0">
            <tspan x="5" y="17" class="highcharts-text-outline" fill="#FFF" stroke="#FFF" stroke-width="2" stroke-linejoin="round">3 </tspan> <tspan x="5" y="17">3</tspan>
        </text>
        <text x="5" data-z-index="1" y="17" font-weight="700" font-family="Trebuchet MS,Verdana,sans-serif" color="#333" fill="#333" transform="translate(746 256)" class="highcharts-label highcharts-data-label highcharts-data-label-color-0">
            <tspan x="5" y="17" class="highcharts-text-outline" fill="#FFF" stroke="#FFF" stroke-width="2" stroke-linejoin="round">3 </tspan> <tspan x="5" y="17">3</tspan>
        </text>
        <text x="5" data-z-index="1" y="17" font-weight="700" font-family="Trebuchet MS,Verdana,sans-serif" color="#333" fill="#333" transform="translate(778 256)" class="highcharts-label highcharts-data-label highcharts-data-label-color-0">
            <tspan x="5" y="17" class="highcharts-text-outline" fill="#FFF" stroke="#FFF" stroke-width="2" stroke-linejoin="round">3 </tspan> <tspan x="5" y="17">3</tspan>
        </text>
        <text x="5" data-z-index="1" y="17" font-weight="700" font-family="Trebuchet MS,Verdana,sans-serif" color="#333" fill="#333" transform="translate(811 256)" class="highcharts-label highcharts-data-label highcharts-data-label-color-0">
            <tspan x="5" y="17" class="highcharts-text-outline" fill="#FFF" stroke="#FFF" stroke-width="2" stroke-linejoin="round">3 </tspan> <tspan x="5" y="17">3</tspan>
        </text>
        <text x="5" data-z-index="1" y="17" font-weight="700" font-family="Trebuchet MS,Verdana,sans-serif" color="#333" fill="#333" transform="translate(843 256)" class="highcharts-label highcharts-data-label highcharts-data-label-color-0">
            <tspan x="5" y="17" class="highcharts-text-outline" fill="#FFF" stroke="#FFF" stroke-width="2" stroke-linejoin="round">3 </tspan> <tspan x="5" y="17">3</tspan>
        </text>
        <text x="5" data-z-index="1" y="17" font-weight="700" font-family="Trebuchet MS,Verdana,sans-serif" color="#333" fill="#333" transform="translate(875 256)" class="highcharts-label highcharts-data-label highcharts-data-label-color-0">
            <tspan x="5" y="17" class="highcharts-text-outline" fill="#FFF" stroke="#FFF" stroke-width="2" stroke-linejoin="round">3 </tspan> <tspan x="5" y="17">3</tspan>
        </text>
    </g>
    <g class="highcharts-axis-labels highcharts-xaxis-labels" data-z-index="7">
        <text x="75.523" style="font:11px Trebuchet MS,Verdana,sans-serif" transform="rotate(45 75.523 312)" y="312" color="#000" cursor="default">
            残差网络
        </text>
        <text x="107.753" style="font:11px Trebuchet MS,Verdana,sans-serif" transform="rotate(45 107.753 312)" y="312" color="#000" cursor="default">
            卷积神经网络
        </text>
        <text x="139.984" style="font:11px Trebuchet MS,Verdana,sans-serif" transform="rotate(45 139.984 312)" y="312" color="#000" cursor="default">
            齐次坐标
        </text>
        <text x="172.215" style="font:11px Trebuchet MS,Verdana,sans-serif" transform="rotate(45 172.215 312)" y="312" color="#000" cursor="default">
            嵌入式平台
        </text>
        <text x="204.446" style="font:11px Trebuchet MS,Verdana,sans-serif" transform="rotate(45 204.446 312)" y="312" color="#000" cursor="default">
            数据集
        </text>
        <text x="236.677" style="font:11px Trebuchet MS,Verdana,sans-serif" transform="rotate(45 236.677 312)" y="312" color="#000" cursor="default">
            深度学习
        </text>
        <text x="268.907" style="font:11px Trebuchet MS,Verdana,sans-serif" transform="rotate(45 268.907 312)" y="312" color="#000" cursor="default">
            卷积核
        </text>
        <text x="301.138" style="font:11px Trebuchet MS,Verdana,sans-serif" transform="rotate(45 301.138 312)" y="312" color="#000" cursor="default">
            拓扑性质
        </text>
        <text x="333.369" style="font:11px Trebuchet MS,Verdana,sans-serif" transform="rotate(45 333.369 312)" y="312" color="#000" cursor="default">
            特征提取与分类
        </text>
        <text x="365.6" style="font:11px Trebuchet MS,Verdana,sans-serif" transform="rotate(45 365.6 312)" y="312" color="#000" cursor="default">
            字符切分
        </text>
        <text x="397.83" style="font:11px Trebuchet MS,Verdana,sans-serif" transform="rotate(45 397.83 312)" y="312" color="#000" cursor="default">
            特征提取
        </text>
        <text x="430.061" style="font:11px Trebuchet MS,Verdana,sans-serif" transform="rotate(45 430.061 312)" y="312" color="#000" cursor="default">
            预处理
        </text>
        <text x="462.292" style="font:11px Trebuchet MS,Verdana,sans-serif" transform="rotate(45 462.292 312)" y="312" color="#000" cursor="default">
            印刷体汉字识别
        </text>
        <text x="494.523" style="font:11px Trebuchet MS,Verdana,sans-serif" transform="rotate(45 494.523 312)" y="312" color="#000" cursor="default">
            正确率
        </text>
        <text x="526.753" style="font:11px Trebuchet MS,Verdana,sans-serif" transform="rotate(45 526.753 312)" y="312" color="#000" cursor="default">
            手写汉字识别
        </text>
        <text x="558.984" style="font:11px Trebuchet MS,Verdana,sans-serif" transform="rotate(45 558.984 312)" y="312" color="#000" cursor="default">
            图像预处理
        </text>
        <text x="591.215" style="font:11px Trebuchet MS,Verdana,sans-serif" transform="rotate(45 591.215 312)" y="312" color="#000" cursor="default">
            目标检测算法
        </text>
        <text x="623.446" style="font:11px Trebuchet MS,Verdana,sans-serif" transform="rotate(45 623.446 312)" y="312" color="#000" cursor="default">
            SSD
        </text>
        <text x="655.677" style="font:11px Trebuchet MS,Verdana,sans-serif" transform="rotate(45 655.677 312)" y="312" color="#000" cursor="default">
            字符分割
        </text>
        <text x="687.907" style="font:11px Trebuchet MS,Verdana,sans-serif" transform="rotate(45 687.907 312)" y="312" color="#000" cursor="default">
            车牌字符识别
        </text>
        <text x="720.138" style="font:11px Trebuchet MS,Verdana,sans-serif" transform="rotate(45 720.138 312)" y="312" color="#000" cursor="default">
            字符识别
        </text>
        <text x="752.369" style="font:11px Trebuchet MS,Verdana,sans-serif" transform="rotate(45 752.369 312)" y="312" color="#000" cursor="default">
            二值化处理
        </text>
        <text x="784.6" style="font:11px Trebuchet MS,Verdana,sans-serif" transform="rotate(45 784.6 312)" y="312" color="#000" cursor="default">
            图像处理
        </text>
        <text x="816.83" style="font:11px Trebuchet MS,Verdana,sans-serif" transform="rotate(45 816.83 312)" y="312" color="#000" cursor="default">
            手写体文字识别
        </text>
        <text x="849.061" style="font:11px Trebuchet MS,Verdana,sans-serif" transform="rotate(45 849.061 312)" y="312" color="#000" cursor="default">
            支持向量机
        </text>
        <text x="881.292" style="font:11px Trebuchet MS,Verdana,sans-serif" transform="rotate(45 881.292 312)" y="312" color="#000" cursor="default">
            卷积网络
        </text>
    </g>
    <g class="highcharts-axis-labels highcharts-yaxis-labels" data-z-index="7">
        <text x="47" style="font:11px Trebuchet MS,Verdana,sans-serif" text-anchor="end" y="301" color="#000" cursor="default">
            0
        </text>
        <text x="47" style="font:11px Trebuchet MS,Verdana,sans-serif" text-anchor="end" y="243" color="#000" cursor="default">
            10
        </text>
        <text x="47" style="font:11px Trebuchet MS,Verdana,sans-serif" text-anchor="end" y="186" color="#000" cursor="default">
            20
        </text>
        <text x="47" style="font:11px Trebuchet MS,Verdana,sans-serif" text-anchor="end" y="129" color="#000" cursor="default">
            30
        </text>
        <text x="47" style="font:11px Trebuchet MS,Verdana,sans-serif" text-anchor="end" y="72" color="#000" cursor="default">
            40
        </text>
        <text x="47" style="font:11px Trebuchet MS,Verdana,sans-serif" text-anchor="end" y="15" color="#000" cursor="default">
            50
        </text>
    </g>
    <g class="highcharts-label highcharts-tooltip highcharts-color-0" data-z-index="8" cursor="default" pointer-events="none" white-space="nowrap">
        <path fill="none" class="highcharts-label-box highcharts-tooltip-box" d="M690.5 240.5h132c3 0 3 0 3 3v28c0 3 0 3-3 3h-61l-6 6-6-6h-59c-3 0-3 0-3-3v-28c0-3 0-3 3-3" stroke="#000" stroke-opacity=".05" stroke-width="5"/>
        <path fill="none" class="highcharts-label-box highcharts-tooltip-box" d="M690.5 240.5h132c3 0 3 0 3 3v28c0 3 0 3-3 3h-61l-6 6-6-6h-59c-3 0-3 0-3-3v-28c0-3 0-3 3-3" stroke="#000" stroke-opacity=".1" stroke-width="3"/>
        <path fill="none" class="highcharts-label-box highcharts-tooltip-box" d="M690.5 240.5h132c3 0 3 0 3 3v28c0 3 0 3-3 3h-61l-6 6-6-6h-59c-3 0-3 0-3-3v-28c0-3 0-3 3-3" stroke="#000" stroke-opacity=".15"/>
        <path fill="rgba(247,247,247,0.85)" class="highcharts-label-box highcharts-tooltip-box" d="M689.5 239.5h132c3 0 3 0 3 3v28c0 3 0 3-3 3h-61l-6 6-6-6h-59c-3 0-3 0-3-3v-28c0-3 0-3 3-3" stroke="#4572A7"/>
        <text x="8" data-z-index="1" y="20" color="#333" fill="#333" transform="translate(686 239)">
            <tspan>二值化处理: 3 Articles</tspan>
        </text>
    </g>
</svg>
