<svg class="highcharts-root" xmlns="http://www.w3.org/2000/svg" width="910" height="384" viewBox="0 0 910 384" font-family="&quot;Lucida Grande&quot;,&quot;Lucida Sans Unicode&quot;,Arial,Helvetica,sans-serif" font-size="12">
    <rect fill="#fff" class="highcharts-background" width="910" height="384" rx="0" ry="0"/>
    <path fill="none" class="highcharts-plot-background" d="M67 10h833v253H67z"/>
    <g class="highcharts-grid highcharts-xaxis-grid" data-z-index="1">
        <path fill="none" stroke="#e6e6e6" data-z-index="1" class="highcharts-grid-line" d="M205.5 10v253M344.5 10v253M483.5 10v253M621.5 10v253M760.5 10v253M900.5 10v253M66.5 10v253"/>
    </g>
    <g class="highcharts-grid highcharts-yaxis-grid" data-z-index="1">
        <path fill="none" stroke="#f2f2f2" class="highcharts-minor-grid-line" d="M67 263.5h833M67 250.5h833M67 238.5h833M67 225.5h833M67 212.5h833M67 200.5h833M67 187.5h833M67 174.5h833M67 162.5h833M67 149.5h833M67 137.5h833M67 124.5h833M67 111.5h833M67 99.5h833M67 86.5h833M67 73.5h833M67 61.5h833M67 48.5h833M67 35.5h833M67 23.5h833M67 9.5h833"/>
        <path fill="none" stroke="#e6e6e6" data-z-index="1" class="highcharts-grid-line" d="M67 263.5h833M67 200.5h833M67 137.5h833M67 73.5h833M67 9.5h833"/>
    </g>
    <path fill="none" class="highcharts-plot-border" data-z-index="1" d="M67 10h833v253H67z"/>
    <g class="highcharts-axis highcharts-xaxis" data-z-index="2">
        <path fill="none" class="highcharts-tick" stroke="#000" d="M205.5 263v10M344.5 263v10M483.5 263v10M621.5 263v10M760.5 263v10M900.5 263v10M66.5 263v10"/>
        <path fill="none" class="highcharts-axis-line" stroke="#000" data-z-index="7" d="M67 263.5h833"/>
    </g>
    <g class="highcharts-axis highcharts-yaxis" data-z-index="2">
        <path fill="none" class="highcharts-tick" stroke="#000" d="M67 263.5H57M67 200.5H57M67 137.5H57M67 73.5H57M67 9.5H57"/>
        <text x="24.063" data-z-index="7" text-anchor="middle" transform="rotate(-90 24.062 136.5)" class="highcharts-axis-title" y="136.5" color="#333" font-weight="700" font-family="Trebuchet MS,Verdana,sans-serif" fill="#333">
            <tspan>Article Number ( Articles)</tspan>
        </text>
        <path fill="none" class="highcharts-axis-line" stroke="#000" data-z-index="7" d="M66.5 10v253"/>
    </g>
    <g class="highcharts-series-group" data-z-index="3">
        <g data-z-index=".1" class="highcharts-series highcharts-series-0 highcharts-column-series highcharts-color-0 highcharts-tracker" transform="translate(67 10)" clip-path="url(#a)" cursor="pointer">
            <path fill="#4572A7" stroke="#fff" class="highcharts-point highcharts-color-0" d="M35.5 15.5h67v238h-67zM174.5 245.5h67v8h-67zM313.5 248.5h67v5h-67zM452.5 250.5h67v3h-67zM590.5 250.5h67v3h-67zM729.5 250.5h67v3h-67z"/>
        </g>
    </g>
    <g data-z-index="6" class="highcharts-data-labels highcharts-series-0 highcharts-column-series highcharts-color-0 highcharts-tracker" cursor="pointer">
        <text x="5" data-z-index="1" y="17" font-weight="700" font-family="Trebuchet MS,Verdana,sans-serif" color="#333" fill="#333" transform="translate(124 26)" class="highcharts-label highcharts-data-label highcharts-data-label-color-0">
            <tspan x="5" y="17" class="highcharts-text-outline" fill="#FFF" stroke="#FFF" stroke-width="2" stroke-linejoin="round">94</tspan> <tspan x="5" y="17">94</tspan>
        </text>
        <text x="5" data-z-index="1" y="17" font-weight="700" font-family="Trebuchet MS,Verdana,sans-serif" color="#333" fill="#333" transform="translate(266 232)" class="highcharts-label highcharts-data-label highcharts-data-label-color-0">
            <tspan x="5" y="17" class="highcharts-text-outline" fill="#FFF" stroke="#FFF" stroke-width="2" stroke-linejoin="round">3</tspan> <tspan x="5" y="17">3</tspan>
        </text>
        <text x="5" data-z-index="1" y="17" font-weight="700" font-family="Trebuchet MS,Verdana,sans-serif" color="#333" fill="#333" transform="translate(405 235)" class="highcharts-label highcharts-data-label highcharts-data-label-color-0">
            <tspan x="5" y="17" class="highcharts-text-outline" fill="#FFF" stroke="#FFF" stroke-width="2" stroke-linejoin="round">2 </tspan> <tspan x="5" y="17">2</tspan>
        </text>
        <text x="5" data-z-index="1" y="17" font-weight="700" font-family="Trebuchet MS,Verdana,sans-serif" color="#333" fill="#333" transform="translate(544 237)" class="highcharts-label highcharts-data-label highcharts-data-label-color-0">
            <tspan x="5" y="17" class="highcharts-text-outline" fill="#FFF" stroke="#FFF" stroke-width="2" stroke-linejoin="round">1 </tspan> <tspan x="5" y="17">1</tspan>
        </text>
        <text x="5" data-z-index="1" y="17" font-weight="700" font-family="Trebuchet MS,Verdana,sans-serif" color="#333" fill="#333" transform="translate(682 237)" class="highcharts-label highcharts-data-label highcharts-data-label-color-0">
            <tspan x="5" y="17" class="highcharts-text-outline" fill="#FFF" stroke="#FFF" stroke-width="2" stroke-linejoin="round">1 </tspan> <tspan x="5" y="17">1</tspan>
        </text>
        <text x="5" data-z-index="1" y="17" font-weight="700" font-family="Trebuchet MS,Verdana,sans-serif" color="#333" fill="#333" transform="translate(821 237)" class="highcharts-label highcharts-data-label highcharts-data-label-color-0">
            <tspan x="5" y="17" class="highcharts-text-outline" fill="#FFF" stroke="#FFF" stroke-width="2" stroke-linejoin="round">1 </tspan> <tspan x="5" y="17">1</tspan>
        </text>
    </g>
    <g class="highcharts-axis-labels highcharts-xaxis-labels" data-z-index="7">
        <text x="133.824" style="font:11px Trebuchet MS,Verdana,sans-serif" transform="rotate(45 133.824 279)" y="279" color="#000" cursor="default">
            <tspan>Technical Research（...</tspan>
        </text>
        <text x="272.657" style="font:11px Trebuchet MS,Verdana,sans-serif" transform="rotate(45 272.657 279)" y="279" color="#000" cursor="default">
            <tspan>Technology Developme...</tspan>
        </text>
        <text x="411.491" style="font:11px Trebuchet MS,Verdana,sans-serif" transform="rotate(45 411.49 279)" y="279" color="#000" cursor="default">
            <tspan>Applied Research（AR...</tspan>
        </text>
        <text x="550.324" style="font:11px Trebuchet MS,Verdana,sans-serif" transform="rotate(45 550.324 279)" y="279" color="#000" cursor="default">
            <tspan>AR- Business Researc...</tspan>
        </text>
        <text x="689.157" style="font:11px Trebuchet MS,Verdana,sans-serif" transform="rotate(45 689.157 279)" y="279" color="#000" cursor="default">
            <tspan>Applied Fundamental ...</tspan>
        </text>
        <text x="827.991" style="font:11px Trebuchet MS,Verdana,sans-serif" transform="rotate(45 827.99 279)" y="279" color="#000" cursor="default">
            <tspan>TR-Clinical Research...</tspan>
        </text>
    </g>
    <g class="highcharts-axis-labels highcharts-yaxis-labels" data-z-index="7">
        <text x="52" style="font:11px Trebuchet MS,Verdana,sans-serif" text-anchor="end" y="268" color="#000" cursor="default">
            0
        </text>
        <text x="52" style="font:11px Trebuchet MS,Verdana,sans-serif" text-anchor="end" y="15" color="#000" cursor="default">
            100
        </text>
        <text x="52" style="font:11px Trebuchet MS,Verdana,sans-serif" text-anchor="end" y="204" color="#000" cursor="default">
            25
        </text>
        <text x="52" style="font:11px Trebuchet MS,Verdana,sans-serif" text-anchor="end" y="141" color="#000" cursor="default">
            50
        </text>
        <text x="52" style="font:11px Trebuchet MS,Verdana,sans-serif" text-anchor="end" y="78" color="#000" cursor="default">
            75
        </text>
    </g>
</svg>
