<svg class="highcharts-root" xmlns="http://www.w3.org/2000/svg" width="910" height="384" viewBox="0 0 910 384" font-family="&quot;Lucida Grande&quot;,&quot;Lucida Sans Unicode&quot;,Arial,Helvetica,sans-serif" font-size="12">
    <rect fill="#fff" class="highcharts-background" width="910" height="384" rx="0" ry="0"/>
    <path fill="none" class="highcharts-plot-background" d="M56 10h844v280H56z"/>
    <g class="highcharts-grid highcharts-xaxis-grid" data-z-index="1">
        <path fill="none" stroke="#e6e6e6" data-z-index="1" class="highcharts-grid-line" d="M83.5 10v280M111.5 10v280M139.5 10v280M168.5 10v280M196.5 10v280M224.5 10v280M252.5 10v280M280.5 10v280M308.5 10v280M336.5 10v280M364.5 10v280M393.5 10v280M421.5 10v280M449.5 10v280M477.5 10v280M505.5 10v280M533.5 10v280M561.5 10v280M590.5 10v280M618.5 10v280M646.5 10v280M674.5 10v280M702.5 10v280M730.5 10v280M758.5 10v280M786.5 10v280M815.5 10v280M843.5 10v280M871.5 10v280M900.5 10v280M55.5 10v280"/>
    </g>
    <g class="highcharts-grid highcharts-yaxis-grid" data-z-index="1">
        <path fill="none" stroke="#f2f2f2" class="highcharts-minor-grid-line" d="M56 290.5h844M56 281.5h844M56 271.5h844M56 262.5h844M56 253.5h844M56 243.5h844M56 234.5h844M56 225.5h844M56 215.5h844M56 206.5h844M56 197.5h844M56 187.5h844M56 178.5h844M56 169.5h844M56 159.5h844M56 150.5h844M56 141.5h844M56 131.5h844M56 122.5h844M56 113.5h844M56 103.5h844M56 94.5h844M56 85.5h844M56 75.5h844M56 66.5h844M56 57.5h844M56 47.5h844M56 38.5h844M56 29.5h844M56 19.5h844"/>
        <path fill="none" stroke="#e6e6e6" data-z-index="1" class="highcharts-grid-line" d="M56 290.5h844M56 243.5h844M56 197.5h844M56 150.5h844M56 103.5h844M56 57.5h844M56 9.5h844"/>
    </g>
    <path fill="none" class="highcharts-plot-border" data-z-index="1" d="M56 10h844v280H56z"/>
    <g class="highcharts-axis highcharts-xaxis" data-z-index="2">
        <path fill="none" class="highcharts-tick" stroke="#000" d="M83.5 290v10M111.5 290v10M139.5 290v10M168.5 290v10M196.5 290v10M224.5 290v10M252.5 290v10M280.5 290v10M308.5 290v10M336.5 290v10M364.5 290v10M393.5 290v10M421.5 290v10M449.5 290v10M477.5 290v10M505.5 290v10M533.5 290v10M561.5 290v10M590.5 290v10M618.5 290v10M646.5 290v10M674.5 290v10M702.5 290v10M730.5 290v10M758.5 290v10M786.5 290v10M815.5 290v10M843.5 290v10M871.5 290v10M900.5 290v10M55.5 290v10"/>
        <path fill="none" class="highcharts-axis-line" stroke="#000" data-z-index="7" d="M56 290.5h844"/>
    </g>
    <g class="highcharts-axis highcharts-yaxis" data-z-index="2">
        <path fill="none" class="highcharts-tick" stroke="#000" d="M56 290.5H46M56 243.5H46M56 197.5H46M56 150.5H46M56 103.5H46M56 57.5H46M56 9.5H46"/>
        <text x="24.594" data-z-index="7" text-anchor="middle" transform="rotate(-90 24.594 150)" class="highcharts-axis-title" y="150" color="#333" font-weight="700" font-family="Trebuchet MS,Verdana,sans-serif" fill="#333">
            <tspan>Article Number ( Articles)</tspan>
        </text>
        <path fill="none" class="highcharts-axis-line" stroke="#000" data-z-index="7" d="M55.5 10v280"/>
    </g>
    <g class="highcharts-series-group" data-z-index="3">
        <g data-z-index=".1" class="highcharts-series highcharts-series-0 highcharts-column-series highcharts-color-0 highcharts-tracker" transform="translate(56 10)" clip-path="url(#a)" cursor="pointer">
            <path fill="#4572A7" stroke="#fff" class="highcharts-point highcharts-color-0" d="M6.5 47.5h14v233h-14zM34.5 93.5h14v187h-14zM63.5 140.5h14v140h-14zM91.5 140.5h14v140h-14zM119.5 140.5h14v140h-14zM147.5 187.5h14v93h-14zM175.5 187.5h14v93h-14zM203.5 187.5h14v93h-14zM231.5 187.5h14v93h-14zM260.5 187.5h14v93h-14zM288.5 187.5h14v93h-14zM316.5 187.5h14v93h-14zM344.5 187.5h14v93h-14zM372.5 187.5h14v93h-14zM400.5 187.5h14v93h-14zM428.5 187.5h14v93h-14zM456.5 233.5h14v47h-14zM485.5 233.5h14v47h-14zM513.5 233.5h14v47h-14zM541.5 233.5h14v47h-14zM569.5 233.5h14v47h-14zM597.5 233.5h14v47h-14zM625.5 233.5h14v47h-14zM653.5 233.5h14v47h-14zM682.5 233.5h14v47h-14zM710.5 233.5h14v47h-14zM738.5 233.5h14v47h-14zM766.5 233.5h14v47h-14zM794.5 233.5h14v47h-14zM822.5 233.5h14v47h-14z"/>
        </g>
    </g>
    <g data-z-index="6" class="highcharts-data-labels highcharts-series-0 highcharts-column-series highcharts-color-0 highcharts-tracker" cursor="pointer">
        <text x="5" data-z-index="1" y="17" font-weight="700" font-family="Trebuchet MS,Verdana,sans-serif" color="#333" fill="#333" transform="translate(61 34)" class="highcharts-label highcharts-data-label highcharts-data-label-color-0">
            <tspan x="5" y="17" class="highcharts-text-outline" fill="#FFF" stroke="#FFF" stroke-width="2" stroke-linejoin="round">5</tspan> <tspan x="5" y="17">5</tspan>
        </text>
        <text x="5" data-z-index="1" y="17" font-weight="700" font-family="Trebuchet MS,Verdana,sans-serif" color="#333" fill="#333" transform="translate(89 80)" class="highcharts-label highcharts-data-label highcharts-data-label-color-0">
            <tspan x="5" y="17" class="highcharts-text-outline" fill="#FFF" stroke="#FFF" stroke-width="2" stroke-linejoin="round">4 </tspan> <tspan x="5" y="17">4</tspan>
        </text>
        <text x="5" data-z-index="1" y="17" font-weight="700" font-family="Trebuchet MS,Verdana,sans-serif" color="#333" fill="#333" transform="translate(118 127)" class="highcharts-label highcharts-data-label highcharts-data-label-color-0">
            <tspan x="5" y="17" class="highcharts-text-outline" fill="#FFF" stroke="#FFF" stroke-width="2" stroke-linejoin="round">3 </tspan> <tspan x="5" y="17">3</tspan>
        </text>
        <text x="5" data-z-index="1" y="17" font-weight="700" font-family="Trebuchet MS,Verdana,sans-serif" color="#333" fill="#333" transform="translate(146 127)" class="highcharts-label highcharts-data-label highcharts-data-label-color-0">
            <tspan x="5" y="17" class="highcharts-text-outline" fill="#FFF" stroke="#FFF" stroke-width="2" stroke-linejoin="round">3 </tspan> <tspan x="5" y="17">3</tspan>
        </text>
        <text x="5" data-z-index="1" y="17" font-weight="700" font-family="Trebuchet MS,Verdana,sans-serif" color="#333" fill="#333" transform="translate(174 127)" class="highcharts-label highcharts-data-label highcharts-data-label-color-0">
            <tspan x="5" y="17" class="highcharts-text-outline" fill="#FFF" stroke="#FFF" stroke-width="2" stroke-linejoin="round">3 </tspan> <tspan x="5" y="17">3</tspan>
        </text>
        <text x="5" data-z-index="1" y="17" font-weight="700" font-family="Trebuchet MS,Verdana,sans-serif" color="#333" fill="#333" transform="translate(202 174)" class="highcharts-label highcharts-data-label highcharts-data-label-color-0">
            <tspan x="5" y="17" class="highcharts-text-outline" fill="#FFF" stroke="#FFF" stroke-width="2" stroke-linejoin="round">2 </tspan> <tspan x="5" y="17">2</tspan>
        </text>
        <text x="5" data-z-index="1" y="17" font-weight="700" font-family="Trebuchet MS,Verdana,sans-serif" color="#333" fill="#333" transform="translate(230 174)" class="highcharts-label highcharts-data-label highcharts-data-label-color-0">
            <tspan x="5" y="17" class="highcharts-text-outline" fill="#FFF" stroke="#FFF" stroke-width="2" stroke-linejoin="round">2 </tspan> <tspan x="5" y="17">2</tspan>
        </text>
        <text x="5" data-z-index="1" y="17" font-weight="700" font-family="Trebuchet MS,Verdana,sans-serif" color="#333" fill="#333" transform="translate(258 174)" class="highcharts-label highcharts-data-label highcharts-data-label-color-0">
            <tspan x="5" y="17" class="highcharts-text-outline" fill="#FFF" stroke="#FFF" stroke-width="2" stroke-linejoin="round">2 </tspan> <tspan x="5" y="17">2</tspan>
        </text>
        <text x="5" data-z-index="1" y="17" font-weight="700" font-family="Trebuchet MS,Verdana,sans-serif" color="#333" fill="#333" transform="translate(286 174)" class="highcharts-label highcharts-data-label highcharts-data-label-color-0">
            <tspan x="5" y="17" class="highcharts-text-outline" fill="#FFF" stroke="#FFF" stroke-width="2" stroke-linejoin="round">2 </tspan> <tspan x="5" y="17">2</tspan>
        </text>
        <text x="5" data-z-index="1" y="17" font-weight="700" font-family="Trebuchet MS,Verdana,sans-serif" color="#333" fill="#333" transform="translate(315 174)" class="highcharts-label highcharts-data-label highcharts-data-label-color-0">
            <tspan x="5" y="17" class="highcharts-text-outline" fill="#FFF" stroke="#FFF" stroke-width="2" stroke-linejoin="round">2 </tspan> <tspan x="5" y="17">2</tspan>
        </text>
        <text x="5" data-z-index="1" y="17" font-weight="700" font-family="Trebuchet MS,Verdana,sans-serif" color="#333" fill="#333" transform="translate(343 174)" class="highcharts-label highcharts-data-label highcharts-data-label-color-0">
            <tspan x="5" y="17" class="highcharts-text-outline" fill="#FFF" stroke="#FFF" stroke-width="2" stroke-linejoin="round">2 </tspan> <tspan x="5" y="17">2</tspan>
        </text>
        <text x="5" data-z-index="1" y="17" font-weight="700" font-family="Trebuchet MS,Verdana,sans-serif" color="#333" fill="#333" transform="translate(371 174)" class="highcharts-label highcharts-data-label highcharts-data-label-color-0">
            <tspan x="5" y="17" class="highcharts-text-outline" fill="#FFF" stroke="#FFF" stroke-width="2" stroke-linejoin="round">2 </tspan> <tspan x="5" y="17">2</tspan>
        </text>
        <text x="5" data-z-index="1" y="17" font-weight="700" font-family="Trebuchet MS,Verdana,sans-serif" color="#333" fill="#333" transform="translate(399 174)" class="highcharts-label highcharts-data-label highcharts-data-label-color-0">
            <tspan x="5" y="17" class="highcharts-text-outline" fill="#FFF" stroke="#FFF" stroke-width="2" stroke-linejoin="round">2 </tspan> <tspan x="5" y="17">2</tspan>
        </text>
        <text x="5" data-z-index="1" y="17" font-weight="700" font-family="Trebuchet MS,Verdana,sans-serif" color="#333" fill="#333" transform="translate(427 174)" class="highcharts-label highcharts-data-label highcharts-data-label-color-0">
            <tspan x="5" y="17" class="highcharts-text-outline" fill="#FFF" stroke="#FFF" stroke-width="2" stroke-linejoin="round">2 </tspan> <tspan x="5" y="17">2</tspan>
        </text>
        <text x="5" data-z-index="1" y="17" font-weight="700" font-family="Trebuchet MS,Verdana,sans-serif" color="#333" fill="#333" transform="translate(455 174)" class="highcharts-label highcharts-data-label highcharts-data-label-color-0">
            <tspan x="5" y="17" class="highcharts-text-outline" fill="#FFF" stroke="#FFF" stroke-width="2" stroke-linejoin="round">2 </tspan> <tspan x="5" y="17">2</tspan>
        </text>
        <text x="5" data-z-index="1" y="17" font-weight="700" font-family="Trebuchet MS,Verdana,sans-serif" color="#333" fill="#333" transform="translate(483 174)" class="highcharts-label highcharts-data-label highcharts-data-label-color-0">
            <tspan x="5" y="17" class="highcharts-text-outline" fill="#FFF" stroke="#FFF" stroke-width="2" stroke-linejoin="round">2 </tspan> <tspan x="5" y="17">2</tspan>
        </text>
        <text x="5" data-z-index="1" y="17" font-weight="700" font-family="Trebuchet MS,Verdana,sans-serif" color="#333" fill="#333" transform="translate(511 220)" class="highcharts-label highcharts-data-label highcharts-data-label-color-0">
            <tspan x="5" y="17" class="highcharts-text-outline" fill="#FFF" stroke="#FFF" stroke-width="2" stroke-linejoin="round">1 </tspan> <tspan x="5" y="17">1</tspan>
        </text>
        <text x="5" data-z-index="1" y="17" font-weight="700" font-family="Trebuchet MS,Verdana,sans-serif" color="#333" fill="#333" transform="translate(540 220)" class="highcharts-label highcharts-data-label highcharts-data-label-color-0">
            <tspan x="5" y="17" class="highcharts-text-outline" fill="#FFF" stroke="#FFF" stroke-width="2" stroke-linejoin="round">1 </tspan> <tspan x="5" y="17">1</tspan>
        </text>
        <text x="5" data-z-index="1" y="17" font-weight="700" font-family="Trebuchet MS,Verdana,sans-serif" color="#333" fill="#333" transform="translate(568 220)" class="highcharts-label highcharts-data-label highcharts-data-label-color-0">
            <tspan x="5" y="17" class="highcharts-text-outline" fill="#FFF" stroke="#FFF" stroke-width="2" stroke-linejoin="round">1 </tspan> <tspan x="5" y="17">1</tspan>
        </text>
        <text x="5" data-z-index="1" y="17" font-weight="700" font-family="Trebuchet MS,Verdana,sans-serif" color="#333" fill="#333" transform="translate(596 220)" class="highcharts-label highcharts-data-label highcharts-data-label-color-0">
            <tspan x="5" y="17" class="highcharts-text-outline" fill="#FFF" stroke="#FFF" stroke-width="2" stroke-linejoin="round">1 </tspan> <tspan x="5" y="17">1</tspan>
        </text>
        <text x="5" data-z-index="1" y="17" font-weight="700" font-family="Trebuchet MS,Verdana,sans-serif" color="#333" fill="#333" transform="translate(624 220)" class="highcharts-label highcharts-data-label highcharts-data-label-color-0">
            <tspan x="5" y="17" class="highcharts-text-outline" fill="#FFF" stroke="#FFF" stroke-width="2" stroke-linejoin="round">1 </tspan> <tspan x="5" y="17">1</tspan>
        </text>
        <text x="5" data-z-index="1" y="17" font-weight="700" font-family="Trebuchet MS,Verdana,sans-serif" color="#333" fill="#333" transform="translate(652 220)" class="highcharts-label highcharts-data-label highcharts-data-label-color-0">
            <tspan x="5" y="17" class="highcharts-text-outline" fill="#FFF" stroke="#FFF" stroke-width="2" stroke-linejoin="round">1 </tspan> <tspan x="5" y="17">1</tspan>
        </text>
        <text x="5" data-z-index="1" y="17" font-weight="700" font-family="Trebuchet MS,Verdana,sans-serif" color="#333" fill="#333" transform="translate(680 220)" class="highcharts-label highcharts-data-label highcharts-data-label-color-0">
            <tspan x="5" y="17" class="highcharts-text-outline" fill="#FFF" stroke="#FFF" stroke-width="2" stroke-linejoin="round">1 </tspan> <tspan x="5" y="17">1</tspan>
        </text>
        <text x="5" data-z-index="1" y="17" font-weight="700" font-family="Trebuchet MS,Verdana,sans-serif" color="#333" fill="#333" transform="translate(708 220)" class="highcharts-label highcharts-data-label highcharts-data-label-color-0">
            <tspan x="5" y="17" class="highcharts-text-outline" fill="#FFF" stroke="#FFF" stroke-width="2" stroke-linejoin="round">1 </tspan> <tspan x="5" y="17">1</tspan>
        </text>
        <text x="5" data-z-index="1" y="17" font-weight="700" font-family="Trebuchet MS,Verdana,sans-serif" color="#333" fill="#333" transform="translate(737 220)" class="highcharts-label highcharts-data-label highcharts-data-label-color-0">
            <tspan x="5" y="17" class="highcharts-text-outline" fill="#FFF" stroke="#FFF" stroke-width="2" stroke-linejoin="round">1 </tspan> <tspan x="5" y="17">1</tspan>
        </text>
        <text x="5" data-z-index="1" y="17" font-weight="700" font-family="Trebuchet MS,Verdana,sans-serif" color="#333" fill="#333" transform="translate(765 220)" class="highcharts-label highcharts-data-label highcharts-data-label-color-0">
            <tspan x="5" y="17" class="highcharts-text-outline" fill="#FFF" stroke="#FFF" stroke-width="2" stroke-linejoin="round">1 </tspan> <tspan x="5" y="17">1</tspan>
        </text>
        <text x="5" data-z-index="1" y="17" font-weight="700" font-family="Trebuchet MS,Verdana,sans-serif" color="#333" fill="#333" transform="translate(793 220)" class="highcharts-label highcharts-data-label highcharts-data-label-color-0">
            <tspan x="5" y="17" class="highcharts-text-outline" fill="#FFF" stroke="#FFF" stroke-width="2" stroke-linejoin="round">1 </tspan> <tspan x="5" y="17">1</tspan>
        </text>
        <text x="5" data-z-index="1" y="17" font-weight="700" font-family="Trebuchet MS,Verdana,sans-serif" color="#333" fill="#333" transform="translate(821 220)" class="highcharts-label highcharts-data-label highcharts-data-label-color-0">
            <tspan x="5" y="17" class="highcharts-text-outline" fill="#FFF" stroke="#FFF" stroke-width="2" stroke-linejoin="round">1 </tspan> <tspan x="5" y="17">1</tspan>
        </text>
        <text x="5" data-z-index="1" y="17" font-weight="700" font-family="Trebuchet MS,Verdana,sans-serif" color="#333" fill="#333" transform="translate(849 220)" class="highcharts-label highcharts-data-label highcharts-data-label-color-0">
            <tspan x="5" y="17" class="highcharts-text-outline" fill="#FFF" stroke="#FFF" stroke-width="2" stroke-linejoin="round">1 </tspan> <tspan x="5" y="17">1</tspan>
        </text>
        <text x="5" data-z-index="1" y="17" font-weight="700" font-family="Trebuchet MS,Verdana,sans-serif" color="#333" fill="#333" transform="translate(877 220)" class="highcharts-label highcharts-data-label highcharts-data-label-color-0">
            <tspan x="5" y="17" class="highcharts-text-outline" fill="#FFF" stroke="#FFF" stroke-width="2" stroke-linejoin="round">1 </tspan> <tspan x="5" y="17">1</tspan>
        </text>
    </g>
    <g class="highcharts-axis-labels highcharts-xaxis-labels" data-z-index="7">
        <text x="67.474" style="font:11px Trebuchet MS,Verdana,sans-serif" transform="rotate(45 67.474 306)" y="306" color="#000" cursor="default">
            华南理工大学
        </text>
        <text x="95.607" style="font:11px Trebuchet MS,Verdana,sans-serif" transform="rotate(45 95.607 306)" y="306" color="#000" cursor="default">
            电子科技大学
        </text>
        <text x="123.741" style="font:11px Trebuchet MS,Verdana,sans-serif" transform="rotate(45 123.74 306)" y="306" color="#000" cursor="default">
            华中科技大学
        </text>
        <text x="151.874" style="font:11px Trebuchet MS,Verdana,sans-serif" transform="rotate(45 151.874 306)" y="306" color="#000" cursor="default">
            云南大学
        </text>
        <text x="180.007" style="font:11px Trebuchet MS,Verdana,sans-serif" transform="rotate(45 180.007 306)" y="306" color="#000" cursor="default">
            合肥工业大学
        </text>
        <text x="208.141" style="font:11px Trebuchet MS,Verdana,sans-serif" transform="rotate(45 208.14 306)" y="306" color="#000" cursor="default">
            郑州大学
        </text>
        <text x="236.274" style="font:11px Trebuchet MS,Verdana,sans-serif" transform="rotate(45 236.274 306)" y="306" color="#000" cursor="default">
            哈尔滨工业大学
        </text>
        <text x="264.407" style="font:11px Trebuchet MS,Verdana,sans-serif" transform="rotate(45 264.407 306)" y="306" color="#000" cursor="default">
            哈尔滨理工大学
        </text>
        <text x="292.541" style="font:11px Trebuchet MS,Verdana,sans-serif" transform="rotate(45 292.54 306)" y="306" color="#000" cursor="default">
            安徽大学
        </text>
        <text x="320.674" style="font:11px Trebuchet MS,Verdana,sans-serif" transform="rotate(45 320.674 306)" y="306" color="#000" cursor="default">
            南京大学
        </text>
        <text x="348.807" style="font:11px Trebuchet MS,Verdana,sans-serif" transform="rotate(45 348.807 306)" y="306" color="#000" cursor="default">
            燕山大学
        </text>
        <text x="376.941" style="font:11px Trebuchet MS,Verdana,sans-serif" transform="rotate(45 376.94 306)" y="306" color="#000" cursor="default">
            浙江大学
        </text>
        <text x="405.074" style="font:11px Trebuchet MS,Verdana,sans-serif" transform="rotate(45 405.074 306)" y="306" color="#000" cursor="default">
            北京工业大学
        </text>
        <text x="433.207" style="font:11px Trebuchet MS,Verdana,sans-serif" transform="rotate(45 433.207 306)" y="306" color="#000" cursor="default">
            广东工业大学
        </text>
        <text x="461.341" style="font:11px Trebuchet MS,Verdana,sans-serif" transform="rotate(45 461.34 306)" y="306" color="#000" cursor="default">
            成都理工大学
        </text>
        <text x="489.474" style="font:11px Trebuchet MS,Verdana,sans-serif" transform="rotate(45 489.474 306)" y="306" color="#000" cursor="default">
            西安电子科技大学
        </text>
        <text x="517.607" style="font:11px Trebuchet MS,Verdana,sans-serif" transform="rotate(45 517.607 306)" y="306" color="#000" cursor="default">
            华中师范大学
        </text>
        <text x="545.741" style="font:11px Trebuchet MS,Verdana,sans-serif" transform="rotate(45 545.74 306)" y="306" color="#000" cursor="default">
            大连海事大学
        </text>
        <text x="573.874" style="font:11px Trebuchet MS,Verdana,sans-serif" transform="rotate(45 573.874 306)" y="306" color="#000" cursor="default">
            山东大学
        </text>
        <text x="602.007" style="font:11px Trebuchet MS,Verdana,sans-serif" transform="rotate(45 602.007 306)" y="306" color="#000" cursor="default">
            河北大学
        </text>
        <text x="630.141" style="font:11px Trebuchet MS,Verdana,sans-serif" transform="rotate(45 630.14 306)" y="306" color="#000" cursor="default">
            西南交通大学
        </text>
        <text x="658.274" style="font:11px Trebuchet MS,Verdana,sans-serif" transform="rotate(45 658.274 306)" y="306" color="#000" cursor="default">
            北京理工大学
        </text>
        <text x="686.407" style="font:11px Trebuchet MS,Verdana,sans-serif" transform="rotate(45 686.407 306)" y="306" color="#000" cursor="default">
            广西大学
        </text>
        <text x="714.541" style="font:11px Trebuchet MS,Verdana,sans-serif" transform="rotate(45 714.54 306)" y="306" color="#000" cursor="default">
            南方医科大学
        </text>
        <text x="742.674" style="font:11px Trebuchet MS,Verdana,sans-serif" transform="rotate(45 742.674 306)" y="306" color="#000" cursor="default">
            天津科技大学
        </text>
        <text x="770.807" style="font:11px Trebuchet MS,Verdana,sans-serif" transform="rotate(45 770.807 306)" y="306" color="#000" cursor="default">
            南京航空航天大学
        </text>
        <text x="798.941" style="font:11px Trebuchet MS,Verdana,sans-serif" transform="rotate(45 798.94 306)" y="306" color="#000" cursor="default">
            太原理工大学
        </text>
        <text x="827.074" style="font:11px Trebuchet MS,Verdana,sans-serif" transform="rotate(45 827.074 306)" y="306" color="#000" cursor="default">
            北京邮电大学
        </text>
        <text x="855.207" style="font:11px Trebuchet MS,Verdana,sans-serif" transform="rotate(45 855.207 306)" y="306" color="#000" cursor="default">
            大连理工大学
        </text>
        <text x="883.341" style="font:11px Trebuchet MS,Verdana,sans-serif" transform="rotate(45 883.34 306)" y="306" color="#000" cursor="default">
            中北大学
        </text>
    </g>
    <g class="highcharts-axis-labels highcharts-yaxis-labels" data-z-index="7">
        <text x="41" style="font:11px Trebuchet MS,Verdana,sans-serif" text-anchor="end" y="295" color="#000" cursor="default">
            0
        </text>
        <text x="41" style="font:11px Trebuchet MS,Verdana,sans-serif" text-anchor="end" y="248" color="#000" cursor="default">
            1
        </text>
        <text x="41" style="font:11px Trebuchet MS,Verdana,sans-serif" text-anchor="end" y="201" color="#000" cursor="default">
            2
        </text>
        <text x="41" style="font:11px Trebuchet MS,Verdana,sans-serif" text-anchor="end" y="155" color="#000" cursor="default">
            3
        </text>
        <text x="41" style="font:11px Trebuchet MS,Verdana,sans-serif" text-anchor="end" y="108" color="#000" cursor="default">
            4
        </text>
        <text x="41" style="font:11px Trebuchet MS,Verdana,sans-serif" text-anchor="end" y="61" color="#000" cursor="default">
            5
        </text>
        <text x="41" style="font:11px Trebuchet MS,Verdana,sans-serif" text-anchor="end" y="15" color="#000" cursor="default">
            6
        </text>
    </g>
</svg>
