<svg class="highcharts-root" xmlns="http://www.w3.org/2000/svg" width="910" height="384" viewBox="0 0 910 384" font-family="&quot;Lucida Grande&quot;,&quot;Lucida Sans Unicode&quot;,Arial,Helvetica,sans-serif" font-size="12">
    <rect fill="#fff" class="highcharts-background" width="910" height="384" rx="0" ry="0"/>
    <path fill="none" class="highcharts-plot-background" d="M71 10h829v264H71z"/>
    <g class="highcharts-grid highcharts-xaxis-grid" data-z-index="1">
        <path fill="none" stroke="#e6e6e6" data-z-index="1" class="highcharts-grid-line" d="M485.5 10v264M900.5 10v264M70.5 10v264"/>
    </g>
    <g class="highcharts-grid highcharts-yaxis-grid" data-z-index="1">
        <path fill="none" stroke="#f2f2f2" class="highcharts-minor-grid-line" d="M71 274.5h829M71 263.5h829M71 253.5h829M71 242.5h829M71 232.5h829M71 221.5h829M71 211.5h829M71 200.5h829M71 190.5h829M71 179.5h829M71 168.5h829M71 158.5h829M71 147.5h829M71 137.5h829M71 126.5h829M71 116.5h829M71 105.5h829M71 94.5h829M71 84.5h829M71 73.5h829M71 63.5h829M71 52.5h829M71 42.5h829M71 31.5h829M71 21.5h829"/>
        <path fill="none" stroke="#e6e6e6" data-z-index="1" class="highcharts-grid-line" d="M71 274.5h829M71 221.5h829M71 168.5h829M71 116.5h829M71 63.5h829M71 9.5h829"/>
    </g>
    <path fill="none" class="highcharts-plot-border" data-z-index="1" d="M71 10h829v264H71z"/>
    <g class="highcharts-axis highcharts-xaxis" data-z-index="2">
        <path fill="none" class="highcharts-tick" stroke="#000" d="M485.5 274v10M900.5 274v10M70.5 274v10"/>
        <path fill="none" class="highcharts-axis-line" stroke="#000" data-z-index="7" d="M71 274.5h829"/>
    </g>
    <g class="highcharts-axis highcharts-yaxis" data-z-index="2">
        <path fill="none" class="highcharts-tick" stroke="#000" d="M71 274.5H61M71 221.5H61M71 168.5H61M71 116.5H61M71 63.5H61M71 9.5H61"/>
        <text x="24.641" data-z-index="7" text-anchor="middle" transform="rotate(-90 24.64 142)" class="highcharts-axis-title" y="142" color="#333" font-weight="700" font-family="Trebuchet MS,Verdana,sans-serif" fill="#333">
            <tspan>Article Number ( Articles)</tspan>
        </text>
        <path fill="none" class="highcharts-axis-line" stroke="#000" data-z-index="7" d="M70.5 10v264"/>
    </g>
    <g class="highcharts-series-group" data-z-index="3">
        <g data-z-index=".1" class="highcharts-series highcharts-series-0 highcharts-column-series highcharts-color-0 highcharts-tracker" transform="translate(71 10)" clip-path="url(#a)" cursor="pointer">
            <path fill="#4572A7" stroke="#fff" class="highcharts-point highcharts-color-0" d="M107.5 53.5h199v211h-199zM521.5 53.5h199v211h-199z"/>
        </g>
    </g>
    <g data-z-index="6" class="highcharts-data-labels highcharts-series-0 highcharts-column-series highcharts-color-0 highcharts-tracker" cursor="pointer">
        <text x="5" data-z-index="1" y="17" font-weight="700" font-family="Trebuchet MS,Verdana,sans-serif" color="#333" fill="#333" transform="translate(269 39)" class="highcharts-label highcharts-data-label highcharts-data-label-color-0">
            <tspan x="5" y="17" class="highcharts-text-outline" fill="#FFF" stroke="#FFF" stroke-width="2" stroke-linejoin="round">1</tspan> <tspan x="5" y="17">1</tspan>
        </text>
        <text x="5" data-z-index="1" y="17" font-weight="700" font-family="Trebuchet MS,Verdana,sans-serif" color="#333" fill="#333" transform="translate(683 39)" class="highcharts-label highcharts-data-label highcharts-data-label-color-0">
            <tspan x="5" y="17" class="highcharts-text-outline" fill="#FFF" stroke="#FFF" stroke-width="2" stroke-linejoin="round">1 </tspan> <tspan x="5" y="17">1</tspan>
        </text>
    </g>
    <g class="highcharts-axis-labels highcharts-xaxis-labels" data-z-index="7">
        <text x="275.657" style="font:11px Trebuchet MS,Verdana,sans-serif" transform="rotate(45 275.657 290)" y="290" color="#000" cursor="default">
            黑龙江省自然科学基金
        </text>
        <text x="690.157" style="font:11px Trebuchet MS,Verdana,sans-serif" transform="rotate(45 690.157 290)" y="290" color="#000" cursor="default">
            河北省自然科学基金
        </text>
    </g>
    <g class="highcharts-axis-labels highcharts-yaxis-labels" data-z-index="7">
        <text x="56" style="font:11px Trebuchet MS,Verdana,sans-serif" text-anchor="end" y="279" color="#000" cursor="default">
            0
        </text>
        <text x="56" style="font:11px Trebuchet MS,Verdana,sans-serif" text-anchor="end" y="68" color="#000" cursor="default">
            1
        </text>
        <text x="56" style="font:11px Trebuchet MS,Verdana,sans-serif" text-anchor="end" y="226" color="#000" cursor="default">
            0.25
        </text>
        <text x="56" style="font:11px Trebuchet MS,Verdana,sans-serif" text-anchor="end" y="173" color="#000" cursor="default">
            0.5
        </text>
        <text x="56" style="font:11px Trebuchet MS,Verdana,sans-serif" text-anchor="end" y="120" color="#000" cursor="default">
            0.75
        </text>
        <text x="56" style="font:11px Trebuchet MS,Verdana,sans-serif" text-anchor="end" y="15" color="#000" cursor="default">
            1.25
        </text>
    </g>
</svg>
